<?xml version="1.0" encoding="UTF-8" standalone="no"?>
<!DOCTYPE svg PUBLIC "-//W3C//DTD SVG 1.1//EN" "http://www.w3.org/Graphics/SVG/1.1/DTD/svg11.dtd">
<svg width="100%" height="100%" viewBox="0 0 5906 5906" version="1.1" xmlns="http://www.w3.org/2000/svg" xmlns:xlink="http://www.w3.org/1999/xlink" xml:space="preserve" xmlns:serif="http://www.serif.com/" style="fill-rule:evenodd;clip-rule:evenodd;stroke-linejoin:round;stroke-miterlimit:1.5;">
    <g transform="matrix(1,0,0,1,-2962.19,-4998.61)">
        <g transform="matrix(1,0,0,1,888.314,515.252)">
            <path d="M6489.81,8352.96C5694.53,7491.94 5392.07,6675.57 4114.68,6498.61C3730.23,6445.36 3389.41,6619.84 3350.02,6987.94C3250.94,7913.84 3889.36,8421.55 4841.02,8418.3C6039.56,8414.2 6673.32,7778.56 6714.02,7047C6752.26,6359.75 5997.65,6389.13 5604.74,6496.97C5179.5,6613.68 4913.34,6770.7 4474.05,7241.88C4211.64,7523.34 3899.63,7894.83 3569.32,8440.55" style="fill:none;stroke:rgb(4,102,200);stroke-width:208.33px;"/>
        </g>
        <g transform="matrix(1,0,0,1,888.314,515.252)">
            <path d="M4082.63,6496.97C3594.95,6447.18 3354.07,6750.33 3339.9,7066.43C3298.32,7994.56 3889.36,8421.55 4841.02,8418.3C6039.56,8414.2 6675.02,7778.65 6714.02,7047C6722.43,6889.17 6681.01,6484.07 6181.92,6438.3" style="fill:none;stroke:rgb(255,252,31);stroke-width:33.33px;"/>
        </g>
        <g transform="matrix(1,0,0,1,888.314,515.252)">
            <path d="M6489.81,8352.96C6172.25,8009.15 5933.27,7672.46 5679.42,7380.76" style="fill:none;stroke:rgb(4,102,200);stroke-width:208.33px;"/>
        </g>
        <g transform="matrix(1,0,0,1,888.314,515.252)">
            <path d="M6488.8,8354.78C6139.91,7964.05 5932.95,7657.72 5660.63,7364.99C5301.39,6978.82 4899.53,6580.37 4082.63,6496.97" style="fill:none;stroke:rgb(255,252,31);stroke-width:33.33px;"/>
        </g>
        <g transform="matrix(1,0,0,1,888.314,515.252)">
            <path d="M5604.74,6496.97C5179.5,6613.68 4913.34,6770.7 4474.05,7241.88C4211.64,7523.34 3899.63,7894.83 3569.32,8440.55" style="fill:none;stroke:rgb(4,102,200);stroke-width:208.33px;"/>
        </g>
        <g transform="matrix(1,0,0,1,888.314,515.252)">
            <path d="M6181.92,6438.3C4854.82,6316.59 3888.66,7906.52 3568.49,8440.55" style="fill:none;stroke:rgb(255,252,31);stroke-width:33.33px;"/>
        </g>
    </g>
</svg>
